<svg xmlns="http://www.w3.org/2000/svg" viewBox="63 40 1992 888" role="img" aria-label="Apex Paramedics">
  <path fill="#FFC92B" fill-rule="evenodd" d="M115.00,656.70C115.00,652.23 131.31,621.87 145.46,600.00C148.84,594.77 154.23,586.00 157.44,580.50C160.65,575.00 169.60,561.95 177.33,551.50C212.84,503.46 219.23,495.52 268.96,437.54C283.93,420.09 353.17,351.83 368.50,339.41C376.20,333.18 387.23,323.99 393.00,319.01C398.77,314.02 411.82,303.80 422.00,296.29C432.18,288.79 447.25,277.59 455.50,271.41C463.75,265.23 474.04,258.09 478.36,255.54C482.68,252.99 490.10,248.30 494.86,245.11C511.62,233.86 543.71,214.19 561.50,204.26C580.43,193.69 647.93,160.39 676.00,147.78C705.19,134.66 754.38,116.19 767.49,113.42C773.00,112.26 784.25,109.14 792.50,106.50C800.75,103.85 812.90,100.18 819.50,98.34C826.10,96.49 834.20,94.09 837.50,93.01C840.80,91.92 847.10,90.31 851.50,89.44C855.90,88.56 863.58,86.55 868.57,84.98C873.56,83.41 881.66,81.59 886.57,80.95C891.48,80.30 899.10,78.43 903.50,76.80C910.00,74.38 914.01,73.65 924.91,72.89C936.13,72.11 939.96,71.39 948.34,68.48C957.82,65.19 959.06,65.00 971.60,65.00C988.07,65.00 997.89,63.70 1009.64,59.98C1014.67,58.38 1020.97,57.04 1023.64,56.99C1046.99,56.58 1151.22,56.37 1209.50,56.62C1224.90,56.69 1240.05,56.75 1243.18,56.75C1246.60,56.76 1252.94,58.00 1259.18,59.88C1272.55,63.90 1280.42,64.96 1297.24,64.98C1310.26,65.00 1311.51,65.18 1321.50,68.52C1330.05,71.38 1334.41,72.21 1344.76,72.94C1354.84,73.64 1359.28,74.46 1366.00,76.86C1370.67,78.52 1378.55,80.40 1383.50,81.05C1388.45,81.69 1396.56,83.50 1401.52,85.08C1406.48,86.65 1413.90,88.59 1418.02,89.38C1422.13,90.17 1428.20,91.74 1431.50,92.86C1434.80,93.98 1441.33,95.85 1446.00,97.00C1450.67,98.15 1458.55,100.38 1463.50,101.97C1485.48,109.00 1498.92,112.98 1504.25,114.02C1507.41,114.64 1518.83,118.26 1529.63,122.07C1540.43,125.88 1549.71,129.00 1550.25,129.00C1550.79,129.00 1559.17,132.34 1568.87,136.43C1578.57,140.51 1592.12,146.19 1599.00,149.05C1605.88,151.90 1622.97,160.01 1637.00,167.07C1651.03,174.12 1668.26,182.60 1675.30,185.90C1682.33,189.21 1693.36,195.01 1699.80,198.79C1706.23,202.57 1715.78,208.08 1721.00,211.03C1747.53,226.01 1803.63,262.15 1819.40,274.43C1823.85,277.90 1831.40,283.46 1836.18,286.79C1852.88,298.44 1886.00,327.68 1886.00,330.78C1886.00,332.75 1880.81,332.15 1876.84,329.73C1874.82,328.51 1869.87,325.51 1865.84,323.08C1861.80,320.65 1854.67,316.32 1850.00,313.45C1845.33,310.59 1835.65,304.96 1828.50,300.95C1821.35,296.94 1808.53,289.52 1800.00,284.46C1778.26,271.54 1756.22,259.81 1744.65,255.00C1739.23,252.75 1728.07,247.54 1719.85,243.43C1679.31,223.12 1596.29,189.29 1572.50,183.38C1567.00,182.02 1558.45,179.61 1553.50,178.03C1532.40,171.29 1517.71,167.00 1515.76,167.00C1514.62,167.00 1509.14,165.45 1503.59,163.56C1498.04,161.67 1490.35,159.60 1486.50,158.95C1482.65,158.30 1475.70,156.46 1471.05,154.87C1466.41,153.28 1458.75,151.54 1454.02,151.00C1449.30,150.47 1442.08,148.88 1437.97,147.47C1433.86,146.07 1424.60,144.02 1417.40,142.93C1410.19,141.84 1401.19,140.05 1397.40,138.95C1393.60,137.86 1383.36,136.05 1374.63,134.94C1365.90,133.82 1353.75,131.85 1347.63,130.56C1341.51,129.27 1332.45,127.92 1327.50,127.56C1313.85,126.57 1291.18,124.17 1275.00,122.02C1237.65,117.03 1101.28,116.73 1064.00,121.55C1057.67,122.37 1049.12,123.48 1045.00,124.01C1040.88,124.55 1027.83,125.86 1016.00,126.93C1004.17,128.00 990.67,129.80 986.00,130.93C981.33,132.06 971.20,133.68 963.50,134.54C955.80,135.40 944.33,137.40 938.00,138.97C931.67,140.55 922.23,142.37 917.00,143.02C911.77,143.67 903.45,145.48 898.50,147.04C893.55,148.60 885.71,150.39 881.07,151.01C876.44,151.63 869.24,153.20 865.07,154.49C860.91,155.79 853.68,157.61 849.00,158.54C844.33,159.47 837.13,161.47 833.00,162.99C828.88,164.51 823.92,166.05 822.00,166.42C818.03,167.17 799.62,172.58 784.00,177.58C778.23,179.43 769.55,181.85 764.72,182.97C751.37,186.05 702.28,204.48 675.72,216.38C667.90,219.88 654.08,226.01 645.00,230.00C635.92,233.99 621.98,240.51 614.00,244.49C606.02,248.47 594.77,253.77 589.00,256.28C557.75,269.84 475.19,319.23 428.97,352.00C395.05,376.05 387.76,381.46 378.81,389.18C374.24,393.12 365.55,400.02 359.50,404.51C353.45,409.00 343.77,417.14 338.00,422.60C332.23,428.06 323.68,435.88 319.00,439.98C314.32,444.08 303.75,453.98 295.50,461.98C287.25,469.98 275.32,481.09 269.00,486.66C256.97,497.25 238.73,516.12 220.75,536.59C214.91,543.23 205.19,553.92 199.16,560.33C186.96,573.29 169.83,594.04 154.19,614.81C140.36,633.16 117.91,659.00 115.79,659.00C115.35,659.00 115.00,657.96 115.00,656.70Z"/>
  <path fill="#134891" fill-rule="evenodd" d="M1750.50,910.62C1747.75,909.88 1743.03,908.12 1740.00,906.71C1736.97,905.30 1730.58,903.48 1725.80,902.67C1718.88,901.49 1715.09,900.11 1707.30,895.93C1685.99,884.50 1673.66,873.92 1661.26,856.39C1653.77,845.80 1652.66,843.73 1645.86,827.50L1641.67,817.50L1641.67,794.50L1641.66,771.50L1647.31,758.56C1657.78,734.56 1668.18,720.78 1685.83,707.48C1710.48,688.91 1739.88,680.19 1774.60,681.15C1787.48,681.50 1787.51,681.51 1796.50,685.85C1801.45,688.25 1807.75,690.88 1810.50,691.69C1821.28,694.90 1841.32,707.60 1851.95,717.95C1859.62,725.43 1859.82,733.00 1852.33,733.00C1848.44,733.00 1847.58,732.25 1834.00,716.95C1826.23,708.20 1818.06,701.95 1808.29,697.27L1801.08,693.82L1789.79,694.84C1783.58,695.41 1772.42,695.62 1765.00,695.31L1751.50,694.76L1737.00,702.00C1723.00,708.98 1722.15,709.59 1712.31,719.61C1701.82,730.28 1701.60,730.63 1691.95,751.50C1688.78,758.34 1688.69,758.94 1687.95,777.36C1687.54,787.73 1687.53,804.38 1687.93,814.36C1688.62,831.72 1688.79,832.83 1691.85,840.08C1698.14,855.00 1710.87,871.45 1721.95,878.96C1730.25,884.59 1740.35,889.39 1751.24,892.87C1759.50,895.51 1763.43,896.13 1777.24,896.93C1793.30,897.87 1793.56,897.86 1798.50,895.48C1810.60,889.67 1825.50,878.83 1835.50,868.54C1846.10,857.64 1848.32,856.00 1852.47,856.00C1855.40,856.00 1856.95,858.80 1856.20,862.75C1855.21,867.92 1832.11,889.41 1822.20,894.37C1815.76,897.59 1808.60,899.76 1801.74,900.56C1797.64,901.04 1794.77,902.11 1791.81,904.25C1784.01,909.91 1779.76,911.17 1767.13,911.58C1759.36,911.84 1753.84,911.52 1750.50,910.62ZM1950.34,911.02C1948.06,910.54 1944.23,909.14 1941.84,907.92C1939.45,906.70 1933.73,904.43 1929.12,902.87C1924.51,901.31 1918.78,898.89 1916.38,897.48C1905.34,891.01 1892.00,876.82 1890.49,869.94C1889.57,865.78 1891.55,861.43 1895.00,860.00C1899.40,858.18 1903.98,860.98 1911.54,870.12C1918.84,878.95 1925.26,884.38 1934.35,889.42C1944.73,895.19 1950.04,896.22 1967.31,895.84C1982.50,895.50 1982.50,895.50 1988.96,892.00C1996.66,887.83 2004.84,880.13 2008.11,873.96C2011.39,867.80 2011.53,853.74 2008.40,847.00C2002.46,834.25 1989.06,823.83 1956.90,806.95C1939.88,798.02 1922.83,788.19 1912.18,781.16C1904.80,776.30 1897.56,767.87 1893.19,759.05C1889.64,751.88 1889.49,751.16 1889.15,739.25C1888.73,724.71 1889.77,719.53 1894.60,712.20C1912.42,685.12 1954.14,673.07 1988.73,685.01C2002.59,689.80 2007.89,692.88 2015.69,700.73C2024.26,709.33 2028.22,715.66 2028.36,720.98C2028.47,725.00 2025.94,729.00 2023.30,729.00C2020.34,729.00 2016.35,726.00 2013.09,721.35C2008.09,714.20 2002.24,708.32 1995.67,703.81C1984.79,696.36 1984.03,696.19 1959.44,695.83L1937.38,695.50L1933.44,698.10C1927.45,702.06 1921.40,708.78 1917.90,715.35C1913.43,723.73 1913.59,729.52 1918.54,738.95C1926.58,754.25 1945.48,767.27 1988.51,787.15C2010.36,797.24 2033.11,818.76 2037.56,833.54C2039.39,839.60 2039.44,856.85 2037.66,863.71C2035.77,871.01 2030.55,879.25 2022.96,886.90C2014.81,895.14 2007.36,899.58 1996.69,902.59C1992.12,903.87 1985.36,906.34 1981.66,908.07C1975.77,910.83 1973.67,911.26 1964.72,911.57C1959.10,911.76 1952.63,911.51 1950.34,911.02ZM93.50,903.07C88.41,901.84 86.09,900.10 83.75,895.72L81.50,891.50L80.80,821.00C80.41,782.23 79.81,744.88 79.47,738.00C78.69,722.53 80.97,699.45 83.75,694.70C84.75,692.98 87.13,690.66 89.04,689.54C93.24,687.07 100.39,686.96 143.50,688.68C175.33,689.96 180.32,690.78 195.67,697.28C213.73,704.94 224.68,715.94 229.54,731.31C234.29,746.36 233.65,759.35 227.47,772.84C222.33,784.07 212.80,792.30 197.03,799.09C181.18,805.93 178.51,806.32 152.00,805.67C130.14,805.13 128.22,805.23 124.48,807.02C116.54,810.84 116.57,810.70 115.98,852.50C115.41,892.62 115.28,893.53 109.62,899.14C108.15,900.59 104.96,902.28 102.53,902.89C97.68,904.11 97.79,904.11 93.50,903.07ZM405.28,903.03C397.05,901.07 392.63,895.19 382.37,872.50C367.85,840.39 366.74,838.55 359.50,834.65C355.61,832.56 354.31,832.49 312.81,832.20C271.73,831.91 269.97,831.98 266.18,833.91C260.31,836.90 258.18,840.02 246.67,862.43C240.87,873.71 234.74,884.98 233.03,887.46C227.80,895.05 223.00,896.06 223.00,889.57C223.00,885.04 230.08,866.12 236.30,854.00C238.99,848.77 245.78,834.83 251.39,823.00C257.00,811.17 267.72,789.77 275.20,775.42C282.68,761.08 292.27,741.51 296.50,731.92C306.44,709.42 314.73,693.42 318.31,689.84C321.78,686.38 326.99,685.99 329.97,688.97C332.48,691.48 336.04,698.59 344.50,718.00C348.22,726.52 355.22,741.41 360.05,751.08C364.88,760.74 372.43,776.94 376.81,787.08C381.20,797.21 391.62,819.45 399.96,836.50C425.79,889.28 427.69,894.45 423.25,899.94C420.49,903.34 412.43,904.73 405.28,903.03ZM460.28,903.03C455.16,901.81 452.32,899.41 450.57,894.79C449.10,890.92 448.97,881.23 449.22,795.00C449.48,705.82 449.62,699.29 451.27,696.26C455.01,689.42 454.27,689.53 496.45,689.19C539.18,688.85 549.49,689.59 562.23,693.90C584.90,701.58 596.83,712.71 601.47,730.54C603.61,738.77 603.38,746.47 600.70,755.70C596.23,771.15 591.35,776.57 573.00,786.45C560.61,793.12 557.00,796.74 557.00,802.46C557.00,806.03 561.32,813.71 568.03,822.06C586.38,844.90 596.38,857.55 601.17,864.00C609.05,874.59 612.95,878.05 617.75,878.69C621.32,879.17 622.18,878.83 625.95,875.43C629.55,872.18 633.47,864.93 652.98,825.56C665.53,800.23 679.26,771.62 683.50,762.00C687.74,752.38 692.79,740.90 694.72,736.50C696.65,732.10 702.76,719.78 708.31,709.12C718.64,689.25 721.20,686.01 726.62,686.00C731.92,685.99 734.89,690.73 747.02,718.50C749.91,725.10 759.22,744.45 767.71,761.50C776.21,778.55 785.43,797.45 788.20,803.50C790.98,809.55 799.08,826.20 806.21,840.50C819.93,868.00 828.00,887.88 828.00,894.19C828.00,901.30 820.77,904.98 810.85,902.90C802.98,901.26 796.12,893.89 789.50,880.00C780.56,861.24 770.87,842.58 768.26,839.13C766.86,837.28 763.75,834.89 761.35,833.83C757.22,832.01 754.68,831.92 714.74,832.20C667.45,832.54 669.36,832.25 662.77,839.95C660.89,842.15 653.77,854.87 646.95,868.22C634.65,892.30 630.38,898.72 624.71,901.65C621.10,903.52 609.23,904.51 601.72,903.57C591.27,902.26 591.91,902.94 548.80,848.14C542.58,840.25 533.30,828.32 528.17,821.64C516.30,806.19 514.68,804.52 508.61,801.49C498.46,796.44 487.41,799.39 483.10,808.30C481.09,812.45 481.00,814.13 481.00,848.18C481.00,884.51 480.36,892.63 477.18,896.94C473.19,902.34 466.91,904.60 460.28,903.03ZM1075.74,902.64C1070.84,900.80 1069.56,899.67 1067.34,895.20C1065.62,891.74 1065.47,886.90 1065.00,821.00C1064.52,753.04 1064.43,750.36 1062.50,746.50C1060.85,743.19 1059.92,742.44 1057.16,742.18C1051.99,741.68 1047.18,747.52 1039.32,763.85C1035.70,771.36 1028.45,785.60 1023.21,795.50C1017.96,805.40 1009.10,822.50 1003.51,833.50C988.89,862.25 977.38,883.64 974.41,887.52C970.90,892.13 966.15,893.64 961.97,891.49C957.31,889.08 949.31,875.22 915.47,811.00C882.23,747.89 877.95,741.00 872.07,741.00C869.27,741.00 867.02,742.87 865.43,746.50C864.95,747.60 864.32,780.00 864.03,818.50C863.52,885.94 863.43,888.65 861.50,892.50C858.07,899.37 852.26,898.21 850.04,890.22C849.37,887.78 849.02,854.41 849.03,793.50C849.04,705.15 849.14,700.30 850.90,696.42C853.77,690.10 857.68,688.71 871.45,689.15C886.72,689.63 889.12,691.18 895.52,704.59C898.03,709.87 901.19,715.92 902.53,718.04C904.95,721.88 908.44,728.30 929.97,768.50C945.08,796.73 963.62,830.41 967.27,836.28C970.67,841.73 972.52,843.00 977.12,843.00C983.38,843.00 988.11,836.40 1003.26,806.45C1010.76,791.63 1020.12,774.10 1024.05,767.50C1033.09,752.33 1035.79,746.92 1040.52,734.50C1045.01,722.74 1058.11,699.08 1062.74,694.37C1067.05,690.00 1072.26,688.76 1084.61,689.16C1096.14,689.54 1099.08,690.86 1102.25,697.07C1103.88,700.26 1104.00,706.98 1103.99,794.50C1103.99,859.42 1103.65,889.74 1102.90,892.50C1100.87,899.90 1096.37,902.89 1086.17,903.59C1081.84,903.88 1078.18,903.55 1075.74,902.64ZM1155.17,903.03C1150.03,901.78 1146.25,897.51 1145.02,891.57C1144.29,888.10 1144.04,856.05 1144.23,792.29C1144.50,698.86 1144.52,698.12 1146.57,695.32C1147.71,693.77 1150.19,691.71 1152.07,690.74C1155.26,689.10 1160.17,689.00 1221.65,689.24C1285.57,689.49 1287.86,689.57 1289.94,691.44C1292.62,693.87 1292.26,696.73 1288.99,699.17C1286.63,700.92 1283.61,701.05 1239.99,701.27C1195.26,701.49 1193.37,701.58 1190.04,703.54C1188.13,704.65 1185.65,707.13 1184.54,709.04C1182.66,712.23 1182.47,714.50 1182.17,738.00C1181.74,770.84 1182.04,772.37 1190.63,780.58C1194.13,783.94 1197.00,787.10 1197.00,787.62C1197.00,788.13 1194.31,790.92 1191.03,793.81C1182.14,801.63 1181.99,802.44 1182.04,841.43C1182.09,874.97 1182.49,878.57 1186.65,883.17C1191.48,888.50 1191.12,888.46 1240.00,889.00C1280.47,889.44 1285.85,889.69 1288.63,891.21C1293.97,894.14 1293.83,898.10 1288.26,901.75C1285.80,903.37 1280.71,903.51 1222.05,903.67C1187.10,903.77 1157.00,903.48 1155.17,903.03ZM1338.74,902.61C1333.54,900.70 1332.37,899.54 1330.30,894.17C1328.61,889.79 1328.50,883.64 1328.50,794.50C1328.50,690.55 1328.18,696.13 1334.32,691.59C1337.09,689.54 1338.06,689.50 1382.82,689.50C1434.67,689.50 1443.52,690.17 1462.02,695.54C1484.61,702.08 1502.72,713.62 1517.73,731.01C1526.62,741.31 1533.63,754.65 1535.07,764.00C1535.62,767.58 1537.05,775.54 1538.25,781.70L1540.42,792.90L1538.27,802.70C1537.08,808.09 1535.81,815.56 1535.43,819.31C1534.31,830.60 1525.23,846.72 1511.54,861.74C1503.24,870.84 1487.56,882.20 1473.73,889.14C1462.89,894.57 1460.78,895.27 1453.08,896.00C1447.03,896.57 1442.14,897.79 1436.50,900.13L1428.50,903.45L1385.50,903.72C1350.90,903.94 1341.77,903.72 1338.74,902.61ZM1588.27,902.90C1582.38,901.50 1578.40,897.20 1577.01,890.74C1576.20,886.99 1575.97,859.00 1576.19,792.50C1576.48,705.74 1576.62,699.28 1578.27,696.26C1581.18,690.94 1584.20,689.62 1594.40,689.23C1604.61,688.84 1608.68,690.22 1612.43,695.32C1614.49,698.13 1614.50,698.62 1614.50,794.82C1614.50,889.51 1614.46,891.58 1612.50,895.47C1611.40,897.66 1609.03,900.29 1607.24,901.32C1603.38,903.54 1594.19,904.31 1588.27,902.90ZM1434.33,884.74C1450.74,879.08 1462.48,871.53 1474.59,858.87C1483.04,850.02 1485.56,845.60 1488.89,833.77C1490.47,828.12 1492.79,820.80 1494.04,817.50C1495.87,812.64 1496.39,808.84 1496.75,797.50C1497.00,789.80 1496.77,781.25 1496.24,778.50C1494.67,770.47 1488.16,749.97 1485.29,744.03C1481.83,736.89 1461.46,716.19 1455.00,713.25C1452.53,712.12 1446.22,709.27 1441.00,706.92L1431.50,702.63L1407.50,701.67C1372.59,700.26 1366.05,701.46 1361.75,710.02C1360.13,713.25 1360.00,719.30 1360.01,793.00C1360.01,847.04 1360.36,873.78 1361.10,876.50C1362.40,881.29 1367.30,886.71 1371.47,887.98C1373.14,888.48 1385.53,888.80 1399.00,888.68L1423.50,888.47L1434.33,884.74ZM341.63,815.37C348.71,812.01 349.67,806.40 345.47,793.09C342.15,782.59 324.96,748.29 321.23,744.71C317.12,740.78 312.41,740.23 308.00,743.17C305.42,744.89 303.28,747.99 299.84,755.00C277.20,801.15 277.57,800.30 277.89,806.69C278.05,809.91 281.93,813.88 286.50,815.50C292.74,817.70 336.93,817.60 341.63,815.37ZM743.36,815.62C747.77,813.78 751.00,809.49 751.00,805.47C751.00,800.84 745.16,786.29 735.79,767.57C726.20,748.42 722.91,743.40 718.56,741.33C715.58,739.91 714.98,739.91 711.84,741.40C707.08,743.66 702.36,751.31 689.52,777.50C677.94,801.15 676.84,805.06 680.33,810.38C681.33,811.91 684.03,814.02 686.33,815.06C690.06,816.76 693.13,816.96 715.28,816.98C734.12,816.99 740.86,816.67 743.36,815.62ZM162.14,793.04C174.98,789.07 188.06,778.94 191.92,769.98C194.75,763.38 196.35,751.88 195.55,743.77C193.74,725.46 185.55,714.32 167.24,705.28L159.60,701.50L144.31,701.70C125.21,701.95 121.07,703.33 117.90,710.50C115.98,714.83 115.89,716.74 116.19,747.29C116.52,781.74 116.49,781.53 121.87,787.34C127.29,793.19 132.35,794.80 145.64,794.91C153.10,794.98 157.48,794.48 162.14,793.04ZM529.50,784.82C536.91,783.29 546.11,778.60 551.90,773.40C555.65,770.03 558.22,766.37 561.54,759.65C567.04,748.53 567.99,742.54 565.49,734.88C561.37,722.32 556.42,715.40 546.93,708.95C536.48,701.86 534.81,701.49 513.38,701.58C495.25,701.66 494.00,701.79 489.38,704.08C481.15,708.16 481.00,708.82 481.01,742.00C481.01,758.52 481.45,772.06 482.04,774.22C482.61,776.26 484.27,779.36 485.74,781.10C490.36,786.60 492.74,787.13 509.50,786.45C517.75,786.12 526.75,785.39 529.50,784.82ZM849.40,645.62C843.43,642.93 843.49,637.46 849.60,624.93C852.13,619.74 855.46,612.35 857.01,608.50C858.56,604.65 863.76,594.08 868.57,585.00C878.84,565.63 892.76,537.02 901.17,518.00C904.45,510.57 909.76,499.55 912.97,493.50C916.18,487.45 921.59,476.20 924.98,468.50C928.38,460.80 934.25,448.43 938.03,441.00C954.65,408.35 966.93,382.94 969.42,376.04C970.90,371.93 976.81,359.09 982.56,347.50C988.30,335.92 993.00,325.99 993.00,325.45C993.00,323.53 998.95,317.26 1001.94,316.02C1009.70,312.81 1015.88,317.80 1023.86,333.73C1028.58,343.17 1031.18,349.02 1043.51,378.00C1046.67,385.43 1055.78,404.55 1063.76,420.50C1071.74,436.45 1080.95,455.35 1084.22,462.49C1090.15,475.43 1092.41,480.18 1107.99,512.50C1112.49,521.85 1117.52,533.28 1119.17,537.90C1120.81,542.51 1126.98,555.79 1132.86,567.40C1145.94,593.19 1162.35,628.11 1164.04,633.74C1165.67,639.17 1164.08,643.26 1159.51,645.43C1155.47,647.35 1128.94,647.66 1122.94,645.86C1115.93,643.76 1111.82,638.08 1098.41,611.93C1091.52,598.49 1082.16,579.85 1077.61,570.50C1072.35,559.69 1068.11,552.31 1065.96,550.22C1059.52,544.01 1059.41,544.00 988.57,544.02C916.84,544.05 919.94,543.75 913.33,551.28C908.65,556.60 901.37,570.56 894.97,586.44C888.84,601.66 874.50,630.95 869.89,637.66C864.78,645.10 855.90,648.54 849.40,645.62ZM1199.00,645.25C1196.83,644.17 1194.74,641.98 1193.50,639.50C1191.53,635.55 1191.50,633.50 1191.50,483.00C1191.50,335.35 1191.56,330.40 1193.39,327.39C1194.42,325.67 1196.67,323.42 1198.39,322.39C1201.35,320.59 1204.48,320.50 1261.50,320.50C1315.30,320.50 1322.41,320.69 1330.33,322.30C1340.09,324.28 1370.90,334.67 1377.60,338.23C1387.79,343.65 1406.86,362.89 1411.91,372.84C1412.93,374.85 1415.25,381.68 1417.07,388.00C1421.71,404.16 1421.63,413.30 1416.64,432.93C1414.63,440.86 1411.85,449.29 1410.46,451.66C1406.53,458.37 1391.52,473.51 1383.45,478.91C1375.65,484.13 1373.68,484.88 1353.38,490.46C1336.75,495.04 1327.86,496.03 1313.71,494.88C1301.42,493.89 1297.11,493.02 1296.90,491.50C1296.82,490.95 1302.67,487.96 1309.90,484.86C1326.80,477.60 1332.99,473.89 1340.47,466.50C1347.30,459.75 1354.10,447.70 1358.54,434.49C1361.05,427.00 1361.18,425.69 1360.79,412.02C1360.40,398.37 1360.16,396.96 1356.92,388.50C1347.00,362.67 1335.31,351.16 1308.50,340.79L1297.50,336.53L1278.50,336.22C1260.31,335.92 1259.31,336.00 1255.06,338.20C1246.72,342.51 1247.10,339.31 1246.94,408.05C1246.79,473.20 1246.77,472.85 1251.96,477.50C1253.19,478.60 1257.84,481.75 1262.30,484.50C1266.75,487.25 1270.42,489.95 1270.45,490.50C1270.48,491.05 1269.38,491.63 1268.00,491.79C1255.35,493.27 1248.64,497.09 1247.44,503.49C1247.09,505.32 1246.74,536.25 1246.66,572.21C1246.48,645.93 1246.99,641.29 1238.67,645.06C1232.71,647.77 1204.31,647.90 1199.00,645.25ZM1465.31,645.94C1461.46,644.77 1458.36,641.06 1456.99,635.97C1456.32,633.47 1456.06,581.19 1456.24,481.35C1456.48,339.31 1456.60,330.31 1458.27,327.27C1459.24,325.49 1461.49,323.24 1463.27,322.27C1466.30,320.61 1473.05,320.50 1572.54,320.50C1673.16,320.50 1678.73,320.59 1681.35,322.31C1682.87,323.30 1684.36,324.77 1684.66,325.56C1685.72,328.31 1683.96,331.97 1680.74,333.73C1677.74,335.37 1671.69,335.54 1600.50,336.00C1518.58,336.53 1521.70,336.34 1516.23,341.32C1511.40,345.72 1511.00,349.96 1511.00,397.32C1511.00,428.04 1511.35,442.45 1512.17,445.18C1513.58,449.88 1518.54,454.50 1523.72,455.94C1526.10,456.60 1544.20,456.99 1572.50,457.00C1600.24,457.01 1618.92,457.41 1621.20,458.04C1625.58,459.25 1629.00,463.18 1629.00,466.99C1629.00,470.96 1624.99,476.31 1620.97,477.69C1618.48,478.55 1604.06,478.90 1570.00,478.95C1516.93,479.01 1517.65,478.92 1513.53,486.00C1511.56,489.40 1511.49,491.23 1511.22,552.29C1511.02,596.57 1511.27,616.31 1512.07,619.26C1513.45,624.38 1518.29,629.17 1523.72,630.80C1526.68,631.68 1547.06,632.02 1601.12,632.06C1642.93,632.09 1676.65,632.53 1679.50,633.07C1682.25,633.59 1687.28,634.30 1690.69,634.64C1701.01,635.68 1703.08,634.00 1726.08,606.00C1739.87,589.21 1753.77,573.50 1769.81,556.56C1777.14,548.83 1786.90,537.55 1791.50,531.50C1796.11,525.45 1804.20,515.77 1809.47,510.00C1829.10,488.50 1828.92,483.37 1807.55,456.84C1802.54,450.60 1795.51,441.23 1791.94,436.00C1788.37,430.77 1777.36,416.46 1767.47,404.20C1757.59,391.93 1747.06,378.66 1744.07,374.70C1732.52,359.39 1727.70,353.25 1721.97,346.50C1714.30,337.46 1710.46,330.30 1711.36,326.70C1712.71,321.32 1715.61,320.53 1735.56,320.17C1745.86,319.99 1756.24,320.31 1759.56,320.93C1770.04,322.86 1773.21,326.00 1794.46,355.50C1800.41,363.75 1808.67,374.43 1812.82,379.24C1816.97,384.05 1823.20,392.03 1826.65,396.98C1833.56,406.90 1853.99,431.13 1858.98,435.33C1863.64,439.25 1869.43,439.04 1874.81,434.75C1881.19,429.67 1914.39,391.81 1936.53,364.37C1950.25,347.37 1967.79,328.33 1972.80,325.01C1980.29,320.05 1989.56,319.87 1992.68,324.63C1993.96,326.59 1994.06,327.58 1993.15,329.56C1991.76,332.61 1977.83,349.88 1969.02,359.48C1952.13,377.87 1940.55,391.25 1935.15,398.64C1931.90,403.08 1922.99,413.37 1915.37,421.52C1881.17,458.05 1879.32,461.01 1884.35,471.26C1885.76,474.14 1890.31,480.32 1894.45,485.00C1898.60,489.68 1904.35,496.84 1907.24,500.91C1910.14,504.99 1916.23,513.09 1920.79,518.91C1925.34,524.74 1932.28,534.00 1936.20,539.50C1940.12,545.00 1947.44,554.45 1952.46,560.50C1957.48,566.55 1964.03,574.65 1967.00,578.50C1969.98,582.35 1974.97,588.43 1978.09,592.01C1981.22,595.59 1986.02,601.90 1988.75,606.03C1991.49,610.16 1997.56,618.34 2002.24,624.20C2011.15,635.37 2012.77,638.69 2010.94,642.11C2008.73,646.25 2004.40,647.00 1982.78,646.99C1963.65,646.98 1962.22,646.85 1957.50,644.65C1951.40,641.81 1944.91,634.88 1933.62,619.17C1929.01,612.74 1921.10,602.54 1916.05,596.51C1911.00,590.47 1903.96,581.42 1900.40,576.40C1896.84,571.37 1891.11,563.94 1887.66,559.88C1884.21,555.82 1876.27,545.52 1870.02,537.00C1852.91,513.65 1848.15,509.23 1841.34,510.33C1836.45,511.13 1833.14,513.86 1823.89,524.76C1819.34,530.12 1811.75,538.77 1807.01,544.00C1793.26,559.17 1766.93,589.83 1760.64,598.00C1750.62,611.01 1720.63,641.51 1715.27,644.15L1710.50,646.50L1589.50,646.71C1513.74,646.83 1467.31,646.55 1465.31,645.94ZM1037.92,519.02C1042.25,517.78 1045.73,514.52 1046.50,510.99C1047.57,506.12 1037.57,482.57 1014.20,434.93C997.39,400.67 994.79,397.47 987.03,401.48C982.60,403.78 974.61,417.94 967.56,436.00C965.52,441.23 958.91,455.58 952.86,467.90C938.32,497.52 934.00,507.24 934.00,510.33C934.00,513.86 937.83,517.99 942.02,518.98C947.07,520.16 1033.79,520.21 1037.92,519.02Z"/>
</svg>
