<?xml version="1.0" encoding="UTF-8" standalone="no"?>
<!-- Created with Inkscape (http://www.inkscape.org/) -->

<svg
   version="1.1"
   id="svg1"
   width="894.53333"
   height="430.01334"
   viewBox="0 0 894.53333 430.01334"
   sodipodi:docname="logo-apex-paramedics-PMS123-PMS072-062915 (2).eps"
   xmlns:inkscape="http://www.inkscape.org/namespaces/inkscape"
   xmlns:sodipodi="http://sodipodi.sourceforge.net/DTD/sodipodi-0.dtd"
   xmlns:xlink="http://www.w3.org/1999/xlink"
   xmlns="http://www.w3.org/2000/svg"
   xmlns:svg="http://www.w3.org/2000/svg">
  <defs
     id="defs1">
    <clipPath
       clipPathUnits="userSpaceOnUse"
       id="clipPath2">
      <path
         d="M 6454.96,785.148 H 19 C 725.117,2109.01 2119.79,3010.08 3724.96,3010.08 c 788.04,0 1525.32,-217.17 2155.32,-594.93 H 2594.96 v -1190 h 3860 V 785.148 m -6440.2022,0 H 4.96484 V 3225.15 H 6454.96 v -810 h -419.82 c -661.25,502.08 -1485.87,800 -2380.18,800 C 2013.85,3215.15 607.199,2211.89 14.7578,785.148"
         transform="matrix(1.5453084e-4,0,0,-4.0630587e-4,9.4263814e-4,1.3148464)"
         id="path2" />
    </clipPath>
    <clipPath
       clipPathUnits="userSpaceOnUse"
       id="clipPath3">
      <path
         d="M 0,0 H 6709 V 3225 H 0 Z"
         transform="matrix(0.13333333,0,0,-0.13333333,0,430.01333)"
         id="path3" />
    </clipPath>
    <clipPath
       clipPathUnits="userSpaceOnUse"
       id="clipPath5">
      <path
         d="m 6604.96,1225.15 h -150 v 775.86 c 51.07,-43.76 101.11,-88.77 150,-134.9 v -640.96 m 0,661.69 c -48.53,54.78 -98.52,108.15 -150,160.15 v 368.16 h 150 v -528.31"
         transform="matrix(0.00584112,0,0,-8.2562749e-4,-37.639602,2.0030549)"
         id="path5" />
    </clipPath>
    <clipPath
       clipPathUnits="userSpaceOnUse"
       id="clipPath6">
      <path
         d="m 6454.96,1225.15 h -3860 v 1190 h 3285.32 c 203.39,-121.96 395.56,-260.61 574.68,-414.14 v -775.86 m 0,821.84 c -130.94,132.25 -271.33,255.42 -419.82,368.16 h 419.82 v -368.16"
         transform="matrix(2.5865191e-4,0,0,-8.3598062e-4,-0.67039989,2.0206488)"
         id="path6" />
    </clipPath>
    <clipPath
       clipPathUnits="userSpaceOnUse"
       id="clipPath7">
      <path
         d="m 6604.96,1866.11 c -48.89,46.13 -98.93,91.14 -150,134.9 -179.12,153.53 -371.29,292.18 -574.68,414.14 h 154.86 c 148.49,-112.74 288.88,-235.91 419.82,-368.16 51.48,-52 101.47,-105.37 150,-160.15 v -20.73"
         transform="matrix(0.00134916,0,0,-0.0017507,-7.9248516,4.247374)"
         id="path7" />
    </clipPath>
    <clipPath
       clipPathUnits="userSpaceOnUse"
       id="clipPath8">
      <path
         d="m 6604.96,1866.11 c -48.89,46.13 -98.93,91.14 -150,134.9 -179.12,153.53 -371.29,292.18 -574.68,414.14 h 154.86 c 148.49,-112.74 288.88,-235.91 419.82,-368.16 51.48,-52 101.47,-105.37 150,-160.15 v -20.73"
         transform="matrix(0.00134916,0,0,-0.0017507,-7.9248516,4.247374)"
         id="path8" />
    </clipPath>
  </defs>
  <sodipodi:namedview
     id="namedview1"
     pagecolor="#ffffff"
     bordercolor="#000000"
     borderopacity="0.25"
     inkscape:showpageshadow="2"
     inkscape:pageopacity="0.0"
     inkscape:pagecheckerboard="0"
     inkscape:deskcolor="#d1d1d1">
    <inkscape:page
       x="0"
       y="0"
       inkscape:label="1"
       id="page1"
       width="894.53333"
       height="430.01334"
       margin="0"
       bleed="0" />
  </sodipodi:namedview>
  <g
     id="g1"
     inkscape:groupmode="layer"
     inkscape:label="1">
    <g
       id="group-R5">
      <g
         id="g2"
         clip-path="url(#clipPath3)">
        
      </g>
      
      <path
         id="path4"
         d="M 3724.96,3010.08 C 4892.24,3010.08 5948.17,2533.56 6709,1764.51 5986.5,2649.82 4886.78,3215.15 3654.96,3215.15 2000.11,3215.15 583.613,2194.89 0,749.109 699.891,2092.64 2105.26,3010.08 3724.96,3010.08"
         style="fill:#f9ad16;fill-opacity:1;fill-rule:nonzero;stroke:none"
         transform="matrix(0.13333333,0,0,-0.13333333,0,430.01333)" />
      
      
      
      
      <path
         id="path9"
         d="m 2944.15,1697.99 h 412.98 l -203.67,439.19 z m 282.57,693.46 528.09,-1135.83 h -191.6 l -171.47,370.63 h -480.59 l -177.11,-370.63 h -94.19 l 540.17,1135.83 h 46.7"
         style="fill:#ffffff;fill-opacity:1;fill-rule:nonzero;stroke:none"
         transform="matrix(0.13333333,0,0,-0.13333333,0,430.01333)" />
      <path
         id="path10"
         d="m 4005.66,1831.9 c 20.92,-5.85 43.59,-11.43 68.01,-16.74 24.42,-5.32 49.24,-7.97 74.47,-7.97 40.78,0 76.34,5.98 106.67,17.94 30.31,11.95 55.54,28.42 75.67,49.41 20.13,20.99 35.15,45.44 45.08,73.33 9.92,27.9 14.89,57.79 14.89,89.67 0,37.19 -6.57,71.07 -19.72,101.63 -13.16,30.55 -30.99,56.46 -53.53,77.71 -22.54,21.25 -49.11,37.73 -79.7,49.42 -30.59,11.69 -63.34,17.54 -98.21,17.54 h -133.63 z m -188.38,534.04 h 355.02 c 58.48,0 113.37,-7.05 164.62,-21.13 51.25,-14.08 95.8,-34.67 133.63,-61.77 37.84,-27.1 67.75,-60.31 89.76,-99.63 22.01,-39.33 33.01,-84.23 33.01,-134.71 0,-50.48 -10.6,-94.45 -31.79,-131.91 -21.22,-37.47 -49.12,-68.55 -83.73,-93.26 -34.61,-24.71 -74.07,-43.04 -118.33,-55 -44.28,-11.95 -89.24,-17.93 -134.85,-17.93 -19.32,0 -39.72,0.53 -61.18,1.59 -21.47,1.07 -42.14,2.52 -61.99,4.39 -19.86,1.85 -38.23,3.84 -55.14,5.97 -16.91,2.12 -30.47,4.51 -40.65,7.18 v -514.11 h -188.38 v 1110.32"
         style="fill:#ffffff;fill-opacity:1;fill-rule:nonzero;stroke:none"
         transform="matrix(0.13333333,0,0,-0.13333333,0,430.01333)" />
      <path
         id="path11"
         d="M 5455.18,2365.94 V 2294.2 H 4864.3 v -396.94 h 395.26 v -71.73 H 4864.3 v -498.17 h 590.88 v -71.74 h -779.26 v 1110.32 h 779.26"
         style="fill:#ffffff;fill-opacity:1;fill-rule:nonzero;stroke:none"
         transform="matrix(0.13333333,0,0,-0.13333333,0,430.01333)" />
      <path
         id="path12"
         d="m 5540.19,1255.62 h -99.02 l 472.55,547.59 -430.68,562.73 h 223.79 l 325.23,-426.43 367.09,426.43 h 99.83 l -421.03,-487.81 477.37,-622.51 h -224.59 l -371.12,486.21 -419.42,-486.21"
         style="fill:#ffffff;fill-opacity:1;fill-rule:nonzero;stroke:none"
         transform="matrix(0.13333333,0,0,-0.13333333,0,430.01333)" />
      <path
         id="path13"
         d="m 250.246,785.23 c 13.984,-3.808 29.125,-7.429 45.449,-10.878 16.313,-3.461 32.895,-5.192 49.758,-5.192 27.246,0 51.004,3.891 71.262,11.66 20.262,7.782 37.117,18.489 50.562,32.141 13.45,13.648 23.481,29.539 30.121,47.687 6.633,18.133 9.954,37.582 9.954,58.313 0,24.18 -4.395,46.211 -13.18,66.078 -8.789,19.871 -20.707,36.711 -35.766,50.531 -15.062,13.82 -32.812,24.53 -53.254,32.14 -20.437,7.6 -42.312,11.4 -65.617,11.4 h -89.289 z m -125.863,347.26 h 237.203 c 39.082,0 75.75,-4.58 110,-13.73 34.238,-9.16 64.004,-22.55 89.285,-40.16 25.277,-17.63 45.266,-39.23 59.973,-64.8 14.699,-25.57 22.054,-54.761 22.054,-87.589 0,-32.832 -7.085,-61.422 -21.246,-85.781 -14.168,-24.36 -32.812,-44.578 -55.941,-60.641 -23.129,-16.07 -49.484,-27.988 -79.066,-35.758 -29.586,-7.781 -59.622,-11.66 -90.094,-11.66 -12.91,0 -26.543,0.328 -40.879,1.027 -14.352,0.692 -28.16,1.633 -41.422,2.852 -13.266,1.199 -25.547,2.5 -36.84,3.891 -11.301,1.379 -20.355,2.929 -27.164,4.66 V 410.488 H 124.383 v 722.002"
         style="fill:#ffffff;fill-opacity:1;fill-rule:nonzero;stroke:none"
         transform="matrix(0.13333333,0,0,-0.13333333,0,430.01333)" />
      <path
         id="path14"
         d="m 754.02,698.16 h 275.94 L 893.875,983.738 Z m 188.8,450.93 352.85,-738.602 H 1167.65 L 1053.08,651.512 H 731.969 L 613.637,410.488 h -62.93 l 360.918,738.602 h 31.195"
         style="fill:#ffffff;fill-opacity:1;fill-rule:nonzero;stroke:none"
         transform="matrix(0.13333333,0,0,-0.13333333,0,430.01333)" />
      <path
         id="path15"
         d="m 1463.27,786.262 h 72.62 c 28.32,0 54.41,3.636 78.26,10.886 23.84,7.262 44.55,17.532 62.12,30.84 17.57,13.301 31.29,29.453 41.15,48.461 9.86,19 14.79,40.25 14.79,63.762 0,21.41 -3.95,41.199 -11.83,59.34 -7.89,18.139 -18.82,33.699 -32.81,46.639 -13.99,12.96 -30.66,23.07 -50.02,30.33 -19.37,7.25 -40.53,10.89 -63.48,10.89 h -110.8 z m -125.86,346.228 h 259.26 c 45.18,0 84.71,-4.65 118.6,-13.99 33.89,-9.33 62.13,-22.37 84.71,-39.13 22.6,-16.76 39.62,-36.63 51.1,-59.6 11.48,-22.989 17.22,-48.129 17.22,-75.418 0,-22.461 -4.4,-43.461 -13.18,-62.973 -8.79,-19.527 -21.25,-37.149 -37.38,-52.867 -16.14,-15.731 -35.51,-29.383 -58.09,-40.953 -22.6,-11.579 -47.52,-20.469 -74.77,-26.688 L 1957.59,410.488 H 1811.82 L 1551.48,749.98 h -88.21 V 410.488 h -125.86 v 722.002"
         style="fill:#ffffff;fill-opacity:1;fill-rule:nonzero;stroke:none"
         transform="matrix(0.13333333,0,0,-0.13333333,0,430.01333)" />
      <path
         id="path16"
         d="m 2108.51,698.16 h 275.94 l -136.08,285.578 z m 188.8,450.93 352.85,-738.602 H 2522.15 L 2407.58,651.512 H 2086.46 L 1968.13,410.488 h -62.93 l 360.92,738.602 h 31.19"
         style="fill:#ffffff;fill-opacity:1;fill-rule:nonzero;stroke:none"
         transform="matrix(0.13333333,0,0,-0.13333333,0,430.01333)" />
      <path
         id="path17"
         d="m 2691.9,1132.49 h 128.55 l 291.53,-554.068 h 5.92 l 286.15,554.068 h 126.4 V 410.488 h -126.4 v 591.402 h -4.3 L 3092.62,410.488 h -25.82 l -310.89,587.254 h -8.61 V 410.488 h -55.4 v 722.002"
         style="fill:#ffffff;fill-opacity:1;fill-rule:nonzero;stroke:none"
         transform="matrix(0.13333333,0,0,-0.13333333,0,430.01333)" />
      <path
         id="path18"
         d="m 4184.3,1132.49 v -46.64 H 3789.49 V 827.73 H 4053.6 V 781.09 H 3789.49 V 457.141 h 394.81 v -46.653 h -520.66 v 722.002 h 520.66"
         style="fill:#ffffff;fill-opacity:1;fill-rule:nonzero;stroke:none"
         transform="matrix(0.13333333,0,0,-0.13333333,0,430.01333)" />
      <path
         id="path19"
         d="m 4394.93,463.359 h 133.4 c 42.31,0 82.11,6.743 119.41,20.223 37.29,13.469 69.83,33.43 97.62,59.859 27.79,26.438 49.67,59.079 65.63,97.957 15.95,38.883 23.93,83.711 23.93,134.5 0,44.231 -7.52,84.911 -22.58,122.063 -15.07,37.141 -36.14,69.098 -63.21,95.891 -27.08,26.778 -59.35,47.688 -96.81,62.718 -37.48,15.03 -78.45,22.54 -122.91,22.54 h -134.48 z m -125.86,669.131 h 249.04 c 77.1,0 143.35,-6.91 198.75,-20.73 55.4,-13.82 101.57,-35.94 138.5,-66.34 42.31,-34.56 74.13,-74.369 95.47,-119.471 21.34,-45.09 32.01,-94.418 32.01,-147.98 0,-50.789 -9.6,-98.469 -28.78,-143.047 -19.18,-44.57 -47.15,-83.543 -83.9,-116.883 -36.77,-33.348 -82.12,-59.609 -136.09,-78.777 -53.97,-19.18 -115.74,-28.774 -185.3,-28.774 h -279.7 v 722.002"
         style="fill:#ffffff;fill-opacity:1;fill-rule:nonzero;stroke:none"
         transform="matrix(0.13333333,0,0,-0.13333333,0,430.01333)" />
      <path
         id="path20"
         d="m 5083.75,1132.49 h 125.86 V 410.488 h -125.86 v 722.002"
         style="fill:#ffffff;fill-opacity:1;fill-rule:nonzero;stroke:none"
         transform="matrix(0.13333333,0,0,-0.13333333,0,430.01333)" />
      <path
         id="path21"
         d="m 5457.9,769.16 c 0,-50.789 7.88,-96.238 23.66,-136.308 15.79,-40.09 37.48,-74.043 65.09,-101.852 27.61,-27.82 60.33,-49.07 98.17,-63.75 37.82,-14.699 78.8,-22.031 122.9,-22.031 26.17,0 51.45,4.922 75.84,14.773 24.38,9.848 47.07,22.629 68.04,38.348 20.98,15.73 39.71,33.519 56.21,53.39 16.49,19.872 30.12,39.989 40.88,60.379 l 52.71,-32.648 c -15.42,-24.191 -33.61,-47.512 -54.59,-69.973 -20.98,-22.468 -45.27,-42.238 -72.88,-59.347 -27.62,-17.102 -58.82,-30.84 -93.6,-41.2 -34.78,-10.371 -73.69,-15.55 -116.71,-15.55 -41.24,0 -80.15,4.578 -116.72,13.73 -36.59,9.149 -70.2,21.949 -100.86,38.359 -30.66,16.411 -58.09,36.192 -82.3,59.352 -24.2,23.137 -44.64,48.629 -61.32,76.438 -16.67,27.82 -29.5,57.621 -38.45,89.421 -8.97,31.778 -13.45,64.61 -13.45,98.469 0,33.86 4.57,66.77 13.72,98.738 9.14,31.961 22.23,62.024 39.26,90.192 17.03,28.148 37.92,53.98 62.66,77.48 24.75,23.5 52.62,43.62 83.65,60.39 31,16.76 64.99,29.81 101.92,39.13 36.93,9.33 76.39,14 118.34,14 39.81,0 76.46,-5.19 109.99,-15.55 33.53,-10.37 64.19,-24.1 91.98,-41.21 27.79,-17.1 52.44,-36.89 73.96,-59.35 21.51,-22.46 39.98,-45.789 55.4,-69.968 l -54.33,-35.242 c -31.55,58.39 -66.69,101.24 -105.42,128.53 -38.73,27.3 -83.19,40.95 -133.4,40.95 -43.38,0 -83.9,-7.6 -121.56,-22.8 -37.64,-15.21 -70.46,-36.98 -98.43,-65.31 -27.96,-28.339 -50.02,-62.71 -66.16,-103.14 -16.13,-40.43 -24.2,-86.051 -24.2,-136.84"
         style="fill:#ffffff;fill-opacity:1;fill-rule:nonzero;stroke:none"
         transform="matrix(0.13333333,0,0,-0.13333333,0,430.01333)" />
      <path
         id="path22"
         d="m 6367.24,439.52 c 18.64,0 37.02,2.41 55.13,7.25 18.1,4.839 34.24,12.089 48.41,21.769 14.16,9.68 25.55,21.512 34.15,35.512 8.61,13.988 12.91,30.14 12.91,48.461 0,22.109 -5.91,41.718 -17.75,58.828 -11.83,17.101 -27.34,32.91 -46.52,47.422 -19.19,14.508 -41.15,28.07 -65.89,40.687 -24.75,12.61 -49.94,25.313 -75.58,38.09 -25.63,12.793 -50.83,26.18 -75.56,40.18 -24.75,13.992 -46.72,29.543 -65.89,46.64 -19.19,17.11 -34.7,36.289 -46.54,57.539 -11.83,21.25 -17.74,45.692 -17.74,73.344 0,27.629 5.37,53.288 16.13,76.958 10.76,23.67 26.54,44.14 47.34,61.43 20.79,17.27 46.33,30.84 76.65,40.68 30.29,9.85 65.16,14.78 104.62,14.78 70.99,0 127.02,-14.35 168.08,-43.02 41.06,-28.69 70.73,-70.16 89.02,-124.398 l -64.55,-28.5 c -7.52,22.109 -17.12,42.308 -28.77,60.628 -11.66,18.31 -25.65,34.04 -41.96,47.17 -16.32,13.13 -35.06,23.23 -56.21,30.32 -21.16,7.08 -45,10.63 -71.53,10.63 -23.67,0 -44.38,-3.21 -62.13,-9.59 -17.75,-6.4 -32.46,-14.69 -44.1,-24.88 -11.66,-10.2 -20.44,-21.77 -26.36,-34.72 -5.92,-12.96 -8.88,-26.18 -8.88,-39.66 0,-19 6.1,-36.371 18.29,-52.09 12.18,-15.718 28.15,-30.66 47.88,-44.832 19.71,-14.168 42.3,-27.726 67.77,-40.687 25.45,-12.961 51.37,-26.172 77.71,-39.652 26.36,-13.469 52.27,-27.469 77.73,-41.977 25.46,-14.523 48.05,-30.41 67.77,-47.684 19.72,-17.289 35.69,-36.207 47.87,-56.757 12.19,-20.571 18.29,-43.461 18.29,-68.672 0,-28.699 -5.64,-55.559 -16.94,-80.61 -11.3,-25.05 -28.24,-46.988 -50.83,-65.82 -22.59,-18.84 -50.65,-33.687 -84.18,-44.578 -33.53,-10.879 -72.53,-16.32 -116.98,-16.32 -35.87,0 -67.96,3.8 -96.29,11.398 -28.33,7.602 -53.34,18.66 -75.03,33.172 -21.7,14.508 -40.25,32.309 -55.67,53.391 -15.42,21.078 -28.16,44.91 -38.19,71.519 l 67.78,26.961 c 7.88,-23.512 18.45,-44.57 31.72,-63.23 13.27,-18.672 28.78,-34.481 46.54,-47.442 17.74,-12.949 37.46,-22.801 59.16,-29.539 21.69,-6.742 44.72,-10.101 69.12,-10.101"
         style="fill:#ffffff;fill-opacity:1;fill-rule:nonzero;stroke:none"
         transform="matrix(0.13333333,0,0,-0.13333333,0,430.01333)" />
    </g>
  </g>
</svg>
