<?xml version="1.0" encoding="UTF-8" standalone="no"?>
<!-- Created with Inkscape (http://www.inkscape.org/) -->

<svg
   version="1.1"
   id="svg1"
   
   
   viewBox="-8 -8 619 245"
   sodipodi:docname="logo-apex-paramedics-PMS123-PMS072-062915 (2).eps"
   xmlns:inkscape="http://www.inkscape.org/namespaces/inkscape"
   xmlns:sodipodi="http://sodipodi.sourceforge.net/DTD/sodipodi-0.dtd"
   xmlns:xlink="http://www.w3.org/1999/xlink"
   xmlns="http://www.w3.org/2000/svg"
   xmlns:svg="http://www.w3.org/2000/svg">
  <defs
     id="defs1">
    <clipPath
       clipPathUnits="userSpaceOnUse"
       id="clipPath2">
      <path
         d="M 6454.96,785.148 H 19 C 725.117,2109.01 2119.79,3010.08 3724.96,3010.08 c 788.04,0 1525.32,-217.17 2155.32,-594.93 H 2594.96 v -1190 h 3860 V 785.148 m -6440.2022,0 H 4.96484 V 3225.15 H 6454.96 v -810 h -419.82 c -661.25,502.08 -1485.87,800 -2380.18,800 C 2013.85,3215.15 607.199,2211.89 14.7578,785.148"
         transform="matrix(1.5453084e-4,0,0,-4.0630587e-4,9.4263814e-4,1.3148464)"
         id="path2" />
    </clipPath>
    <clipPath
       clipPathUnits="userSpaceOnUse"
       id="clipPath3">
      <path
         d="M 0,0 H 6709 V 3225 H 0 Z"
         transform="matrix(0.13333333,0,0,-0.13333333,0,430.01333)"
         id="path3" />
    </clipPath>
    <clipPath
       clipPathUnits="userSpaceOnUse"
       id="clipPath5">
      <path
         d="m 6604.96,1225.15 h -150 v 775.86 c 51.07,-43.76 101.11,-88.77 150,-134.9 v -640.96 m 0,661.69 c -48.53,54.78 -98.52,108.15 -150,160.15 v 368.16 h 150 v -528.31"
         transform="matrix(0.00584112,0,0,-8.2562749e-4,-37.639602,2.0030549)"
         id="path5" />
    </clipPath>
    <clipPath
       clipPathUnits="userSpaceOnUse"
       id="clipPath6">
      <path
         d="m 6454.96,1225.15 h -3860 v 1190 h 3285.32 c 203.39,-121.96 395.56,-260.61 574.68,-414.14 v -775.86 m 0,821.84 c -130.94,132.25 -271.33,255.42 -419.82,368.16 h 419.82 v -368.16"
         transform="matrix(2.5865191e-4,0,0,-8.3598062e-4,-0.67039989,2.0206488)"
         id="path6" />
    </clipPath>
    <clipPath
       clipPathUnits="userSpaceOnUse"
       id="clipPath7">
      <path
         d="m 6604.96,1866.11 c -48.89,46.13 -98.93,91.14 -150,134.9 -179.12,153.53 -371.29,292.18 -574.68,414.14 h 154.86 c 148.49,-112.74 288.88,-235.91 419.82,-368.16 51.48,-52 101.47,-105.37 150,-160.15 v -20.73"
         transform="matrix(0.00134916,0,0,-0.0017507,-7.9248516,4.247374)"
         id="path7" />
    </clipPath>
    <clipPath
       clipPathUnits="userSpaceOnUse"
       id="clipPath8">
      <path
         d="m 6604.96,1866.11 c -48.89,46.13 -98.93,91.14 -150,134.9 -179.12,153.53 -371.29,292.18 -574.68,414.14 h 154.86 c 148.49,-112.74 288.88,-235.91 419.82,-368.16 51.48,-52 101.47,-105.37 150,-160.15 v -20.73"
         transform="matrix(0.00134916,0,0,-0.0017507,-7.9248516,4.247374)"
         id="path8" />
    </clipPath>
  </defs>
  <sodipodi:namedview
     id="namedview1"
     pagecolor="#ffffff"
     bordercolor="#000000"
     borderopacity="0.25"
     inkscape:showpageshadow="2"
     inkscape:pageopacity="0.0"
     inkscape:pagecheckerboard="0"
     inkscape:deskcolor="#d1d1d1">
    <inkscape:page
       x="0"
       y="0"
       inkscape:label="1"
       id="page1"
       width="894.53333"
       height="430.01334"
       margin="0"
       bleed="0" />
  </sodipodi:namedview>
  <g
     id="g1"
     inkscape:groupmode="layer"
     inkscape:label="1">
    <g
       id="group-R5">
      <g
         id="g2"
         clip-path="url(#clipPath3)">
        
      </g>
      
      <path
         id="path4"
         d="M 3724.96,3010.08 C 4892.24,3010.08 5948.17,2533.56 6709,1764.51 5986.5,2649.82 4886.78,3215.15 3654.96,3215.15 2000.11,3215.15 583.613,2194.89 0,749.109 699.891,2092.64 2105.26,3010.08 3724.96,3010.08"
         style="fill:#f9ad16;fill-opacity:1;fill-rule:nonzero;stroke:none"
         transform="matrix(0.13333333,0,0,-0.13333333,0,430.01333)" />
      
      
      
      
      
      
      
      
      
      
      
      
      
      
      
      
      
      
    </g>
  </g>
</svg>
