<svg xmlns="http://www.w3.org/2000/svg" viewBox="99 40 1803 635" role="img" aria-label="Apex Paramedics mark">
  <path fill="#FFC92B" fill-rule="evenodd" d="M115.00,656.70C115.00,652.23 131.31,621.87 145.46,600.00C148.84,594.77 154.23,586.00 157.44,580.50C160.65,575.00 169.60,561.95 177.33,551.50C212.84,503.46 219.23,495.52 268.96,437.54C283.93,420.09 353.17,351.83 368.50,339.41C376.20,333.18 387.23,323.99 393.00,319.01C398.77,314.02 411.82,303.80 422.00,296.29C432.18,288.79 447.25,277.59 455.50,271.41C463.75,265.23 474.04,258.09 478.36,255.54C482.68,252.99 490.10,248.30 494.86,245.11C511.62,233.86 543.71,214.19 561.50,204.26C580.43,193.69 647.93,160.39 676.00,147.78C705.19,134.66 754.38,116.19 767.49,113.42C773.00,112.26 784.25,109.14 792.50,106.50C800.75,103.85 812.90,100.18 819.50,98.34C826.10,96.49 834.20,94.09 837.50,93.01C840.80,91.92 847.10,90.31 851.50,89.44C855.90,88.56 863.58,86.55 868.57,84.98C873.56,83.41 881.66,81.59 886.57,80.95C891.48,80.30 899.10,78.43 903.50,76.80C910.00,74.38 914.01,73.65 924.91,72.89C936.13,72.11 939.96,71.39 948.34,68.48C957.82,65.19 959.06,65.00 971.60,65.00C988.07,65.00 997.89,63.70 1009.64,59.98C1014.67,58.38 1020.97,57.04 1023.64,56.99C1046.99,56.58 1151.22,56.37 1209.50,56.62C1224.90,56.69 1240.05,56.75 1243.18,56.75C1246.60,56.76 1252.94,58.00 1259.18,59.88C1272.55,63.90 1280.42,64.96 1297.24,64.98C1310.26,65.00 1311.51,65.18 1321.50,68.52C1330.05,71.38 1334.41,72.21 1344.76,72.94C1354.84,73.64 1359.28,74.46 1366.00,76.86C1370.67,78.52 1378.55,80.40 1383.50,81.05C1388.45,81.69 1396.56,83.50 1401.52,85.08C1406.48,86.65 1413.90,88.59 1418.02,89.38C1422.13,90.17 1428.20,91.74 1431.50,92.86C1434.80,93.98 1441.33,95.85 1446.00,97.00C1450.67,98.15 1458.55,100.38 1463.50,101.97C1485.48,109.00 1498.92,112.98 1504.25,114.02C1507.41,114.64 1518.83,118.26 1529.63,122.07C1540.43,125.88 1549.71,129.00 1550.25,129.00C1550.79,129.00 1559.17,132.34 1568.87,136.43C1578.57,140.51 1592.12,146.19 1599.00,149.05C1605.88,151.90 1622.97,160.01 1637.00,167.07C1651.03,174.12 1668.26,182.60 1675.30,185.90C1682.33,189.21 1693.36,195.01 1699.80,198.79C1706.23,202.57 1715.78,208.08 1721.00,211.03C1747.53,226.01 1803.63,262.15 1819.40,274.43C1823.85,277.90 1831.40,283.46 1836.18,286.79C1852.88,298.44 1886.00,327.68 1886.00,330.78C1886.00,332.75 1880.81,332.15 1876.84,329.73C1874.82,328.51 1869.87,325.51 1865.84,323.08C1861.80,320.65 1854.67,316.32 1850.00,313.45C1845.33,310.59 1835.65,304.96 1828.50,300.95C1821.35,296.94 1808.53,289.52 1800.00,284.46C1778.26,271.54 1756.22,259.81 1744.65,255.00C1739.23,252.75 1728.07,247.54 1719.85,243.43C1679.31,223.12 1596.29,189.29 1572.50,183.38C1567.00,182.02 1558.45,179.61 1553.50,178.03C1532.40,171.29 1517.71,167.00 1515.76,167.00C1514.62,167.00 1509.14,165.45 1503.59,163.56C1498.04,161.67 1490.35,159.60 1486.50,158.95C1482.65,158.30 1475.70,156.46 1471.05,154.87C1466.41,153.28 1458.75,151.54 1454.02,151.00C1449.30,150.47 1442.08,148.88 1437.97,147.47C1433.86,146.07 1424.60,144.02 1417.40,142.93C1410.19,141.84 1401.19,140.05 1397.40,138.95C1393.60,137.86 1383.36,136.05 1374.63,134.94C1365.90,133.82 1353.75,131.85 1347.63,130.56C1341.51,129.27 1332.45,127.92 1327.50,127.56C1313.85,126.57 1291.18,124.17 1275.00,122.02C1237.65,117.03 1101.28,116.73 1064.00,121.55C1057.67,122.37 1049.12,123.48 1045.00,124.01C1040.88,124.55 1027.83,125.86 1016.00,126.93C1004.17,128.00 990.67,129.80 986.00,130.93C981.33,132.06 971.20,133.68 963.50,134.54C955.80,135.40 944.33,137.40 938.00,138.97C931.67,140.55 922.23,142.37 917.00,143.02C911.77,143.67 903.45,145.48 898.50,147.04C893.55,148.60 885.71,150.39 881.07,151.01C876.44,151.63 869.24,153.20 865.07,154.49C860.91,155.79 853.68,157.61 849.00,158.54C844.33,159.47 837.13,161.47 833.00,162.99C828.88,164.51 823.92,166.05 822.00,166.42C818.03,167.17 799.62,172.58 784.00,177.58C778.23,179.43 769.55,181.85 764.72,182.97C751.37,186.05 702.28,204.48 675.72,216.38C667.90,219.88 654.08,226.01 645.00,230.00C635.92,233.99 621.98,240.51 614.00,244.49C606.02,248.47 594.77,253.77 589.00,256.28C557.75,269.84 475.19,319.23 428.97,352.00C395.05,376.05 387.76,381.46 378.81,389.18C374.24,393.12 365.55,400.02 359.50,404.51C353.45,409.00 343.77,417.14 338.00,422.60C332.23,428.06 323.68,435.88 319.00,439.98C314.32,444.08 303.75,453.98 295.50,461.98C287.25,469.98 275.32,481.09 269.00,486.66C256.97,497.25 238.73,516.12 220.75,536.59C214.91,543.23 205.19,553.92 199.16,560.33C186.96,573.29 169.83,594.04 154.19,614.81C140.36,633.16 117.91,659.00 115.79,659.00C115.35,659.00 115.00,657.96 115.00,656.70Z"/>
</svg>
